<svg width="502" height="502" viewBox="0 0 502 502" fill="none" xmlns="http://www.w3.org/2000/svg">
<circle cx="251" cy="251" r="250" stroke="#080808" stroke-width="2"/>
<path d="M144.472 232.051V236H131.09V217.98H135.569V232.051H144.472ZM169.514 232.899H161.882L160.689 236H155.919L163.578 217.874H167.871L175.503 236H170.733L169.514 232.899ZM168.03 229.083L165.698 223.094L163.366 229.083H168.03ZM204.565 217.98V236H201.12L192.481 226.115V236H188.003V217.98H191.421L200.113 228.129V217.98H204.565ZM227.438 232.184C229.796 232.184 231.387 230.832 231.89 228.527H236.501C236.209 230.885 235.229 232.767 233.586 234.224C231.943 235.655 229.902 236.371 227.464 236.371C224.735 236.371 222.482 235.496 220.654 233.721C218.825 231.945 217.924 229.693 217.924 226.99C217.924 224.287 218.825 222.061 220.654 220.285C222.482 218.51 224.735 217.609 227.464 217.609C229.902 217.609 231.943 218.324 233.586 219.782C235.229 221.213 236.209 223.094 236.501 225.453H231.89C231.387 223.147 229.796 221.796 227.438 221.796C225.98 221.796 224.761 222.299 223.834 223.28C222.906 224.26 222.456 225.479 222.456 226.99C222.456 228.5 222.906 229.746 223.834 230.726C224.761 231.707 225.98 232.184 227.438 232.184ZM254.337 221.875V225.161H262.34V228.977H254.337V232.105H263.48V236H249.859V217.98H263.48V221.875H254.337ZM283.894 230.779H281.111V236H276.633V217.98H284.503C286.756 217.98 288.584 218.563 289.936 219.702C291.287 220.842 291.976 222.379 291.976 224.313C291.976 226.778 290.731 228.818 288.531 229.905L293.169 236H287.789L283.894 230.779ZM281.111 226.751H284.424C286.199 226.751 287.498 225.771 287.498 224.313C287.498 222.909 286.199 221.928 284.424 221.928H281.111V226.751ZM339.73 217.98V227.599C339.73 230.382 338.988 232.528 337.477 234.092C335.967 235.629 333.926 236.398 331.329 236.398C328.732 236.398 326.665 235.629 325.181 234.092C323.671 232.528 322.955 230.382 322.955 227.599V217.98H327.46V227.679C327.46 230.435 328.971 232.21 331.329 232.21C333.688 232.21 335.225 230.435 335.225 227.679V217.98H339.73ZM369.818 217.98V236H366.373L357.734 226.115V236H353.255V217.98H356.674L365.366 228.129V217.98H369.818Z" fill="black"/>
<rect width="322" height="43" transform="translate(90 249)" fill="#080808"/>
<path d="M131.44 260.68H137.992C140.56 260.68 142.672 261.448 144.328 262.96C145.984 264.472 146.8 266.416 146.8 268.792C146.8 271.216 145.984 273.184 144.328 274.72C142.672 276.232 140.56 277 137.992 277H131.44V260.68ZM135.496 273.352H137.992C139.312 273.352 140.44 272.92 141.328 272.056C142.216 271.168 142.672 270.088 142.672 268.792C142.672 267.52 142.216 266.464 141.328 265.624C140.44 264.76 139.312 264.328 137.992 264.328H135.496V273.352ZM162.791 260.68V277H158.735V260.68H162.791ZM186.433 274.192H179.521L178.441 277H174.121L181.057 260.584H184.945L191.857 277H187.537L186.433 274.192ZM185.089 270.736L182.977 265.312L180.865 270.736H185.089ZM218.521 267.832V277H215.497L215.329 275.032C214.081 276.568 212.353 277.336 210.169 277.336C207.649 277.336 205.561 276.544 203.929 274.96C202.297 273.352 201.481 271.384 201.481 269.008C201.481 266.488 202.297 264.4 203.953 262.792C205.609 261.16 207.697 260.344 210.193 260.344C212.257 260.344 214.057 260.896 215.569 262C217.081 263.08 218.017 264.592 218.353 266.488H214.081C213.481 264.88 212.233 264.064 210.289 264.064C208.873 264.064 207.745 264.52 206.881 265.408C206.017 266.296 205.585 267.472 205.585 268.912C205.585 270.232 206.017 271.336 206.881 272.224C207.769 273.112 208.897 273.568 210.313 273.568C212.209 273.568 213.601 272.728 214.465 271.072L209.785 271.024V267.832H218.521ZM246.317 260.68V277H243.197L235.373 268.048V277H231.317V260.68H234.413L242.285 269.872V260.68H246.317ZM260.887 262.816C262.543 261.16 264.607 260.344 267.055 260.344C269.503 260.344 271.543 261.16 273.199 262.816C274.855 264.448 275.695 266.464 275.695 268.84C275.695 271.216 274.855 273.232 273.199 274.888C271.543 276.52 269.503 277.336 267.055 277.336C264.607 277.336 262.543 276.52 260.887 274.888C259.231 273.232 258.415 271.216 258.415 268.84C258.415 266.464 259.231 264.448 260.887 262.816ZM263.815 272.2C264.679 273.112 265.759 273.568 267.055 273.568C268.351 273.568 269.431 273.112 270.295 272.2C271.159 271.264 271.591 270.16 271.591 268.84C271.591 267.52 271.159 266.416 270.295 265.504C269.431 264.568 268.351 264.112 267.055 264.112C265.759 264.112 264.679 264.568 263.815 265.504C262.951 266.416 262.519 267.52 262.519 268.84C262.519 270.16 262.951 271.264 263.815 272.2ZM293.961 260.32C295.425 260.32 296.841 260.632 298.257 261.376C299.697 262.144 300.753 263.656 300.945 265.744H296.865C296.625 264.376 295.737 263.68 294.225 263.68C292.809 263.68 291.897 264.28 291.897 265.312C291.897 266.176 292.497 266.56 293.769 266.848L296.049 267.376C299.289 268.12 300.969 269.368 300.969 272.032C300.969 273.664 300.345 274.96 299.121 275.92C297.897 276.856 296.241 277.336 294.201 277.336C292.209 277.336 290.529 276.856 289.161 275.896C287.793 274.912 287.001 273.472 286.833 271.576H290.889C291.153 273.016 292.401 273.88 294.321 273.88C295.833 273.88 296.625 273.328 296.625 272.44C296.625 271.744 296.049 271.312 294.897 271.048L292.209 270.448C288.969 269.728 287.481 268.24 287.481 265.648C287.481 264.04 288.081 262.744 289.257 261.784C290.457 260.8 292.017 260.32 293.961 260.32ZM326.036 264.304H320.828V277H316.796V264.304H311.588V260.68H326.036V264.304ZM341.694 260.68V277H337.638V260.68H341.694ZM362.408 273.544C364.544 273.544 365.984 272.32 366.44 270.232H370.616C370.352 272.368 369.464 274.072 367.976 275.392C366.488 276.688 364.64 277.336 362.432 277.336C359.96 277.336 357.92 276.544 356.264 274.936C354.608 273.328 353.792 271.288 353.792 268.84C353.792 266.392 354.608 264.376 356.264 262.768C357.92 261.16 359.96 260.344 362.432 260.344C364.64 260.344 366.488 260.992 367.976 262.312C369.464 263.608 370.352 265.312 370.616 267.448H366.44C365.984 265.36 364.544 264.136 362.408 264.136C361.088 264.136 359.984 264.592 359.144 265.48C358.304 266.368 357.896 267.472 357.896 268.84C357.896 270.208 358.304 271.336 359.144 272.224C359.984 273.112 361.088 273.544 362.408 273.544Z" fill="#F7F7F7"/>
</svg>
