<svg width="48" height="48" viewBox="0 0 48 48" fill="none"
    xmlns="http://www.w3.org/2000/svg">
    <g clip-path="url(#clip0_778_229)">
        <path d="M33.3152 18.3523L32.3904 17.4276C33.1969 17.1132 33.7702 16.3287 33.7702 15.4123V12.4677C33.7702 11.2754 32.8001 10.3053 31.6077 10.3053H31.0107C30.2986 8.46992 28.9205 6.93074 27.1652 6.03568C26.781 5.83969 26.7265 5.36533 26.8702 5.01843C27.1277 4.39712 27.2058 3.71076 27.0961 3.03342C26.8439 1.4763 25.521 0.211238 23.9505 0.0254544C22.9118 -0.0972052 21.8718 0.227249 21.0965 0.91637C20.3205 1.60595 19.8754 2.59652 19.8754 3.63411C19.8754 4.12521 19.9723 4.60186 20.1635 5.05073C20.3284 5.43785 20.1906 5.86389 19.8432 6.04185C18.0891 6.94003 16.713 8.47691 16.0034 10.3054H15.4125C14.2202 10.3054 13.2501 11.2754 13.2501 12.4678V15.4124C13.2501 16.3287 13.8233 17.1132 14.6298 17.4276L13.7049 18.3525C12.4623 19.5951 11.7778 21.2473 11.7778 23.0048V41.9135C11.7778 44.7295 14.0688 47.0205 16.8848 47.0205H30.1354C32.9514 47.0205 35.2423 44.7295 35.2423 41.9135V23.0049C35.2424 21.2474 34.558 19.595 33.3152 18.3523ZM20.4723 7.27029C21.4724 6.75821 21.8856 5.57145 21.4334 4.50975C21.3155 4.23287 21.2557 3.93823 21.2557 3.63402C21.2557 2.99045 21.5318 2.37596 22.0133 1.94807C22.5013 1.51449 23.1321 1.3183 23.7884 1.39606C24.7598 1.51099 25.5778 2.2924 25.7337 3.25399C25.8024 3.6781 25.7545 4.10552 25.5952 4.48988C25.1477 5.56961 25.5531 6.76281 26.5382 7.26523C27.8305 7.92426 28.8768 9.00491 29.508 10.3052H17.5064C18.1358 9.01043 19.1807 7.93171 20.4723 7.27029ZM14.6305 12.4677C14.6305 12.0364 14.9813 11.6856 15.4126 11.6856H16.4879C16.4887 11.6856 16.4894 11.6858 16.4902 11.6858C16.491 11.6858 16.4917 11.6856 16.4925 11.6856H30.524C30.5257 11.6856 30.5275 11.6856 30.5292 11.6856H31.6078C32.0391 11.6856 32.39 12.0364 32.39 12.4677V15.4123C32.39 15.8436 32.0391 16.1944 31.6078 16.1944H15.4127C14.9814 16.1944 14.6306 15.8436 14.6306 15.4123V12.4677H14.6305ZM33.8622 41.9134C33.8622 43.9683 32.1904 45.6401 30.1355 45.6401H16.8849C14.83 45.6401 13.1582 43.9683 13.1582 41.9134V39.659H16.1488C16.5299 39.659 16.8389 39.35 16.8389 38.9688C16.8389 38.5877 16.5299 38.2787 16.1488 38.2787H13.1582V35.9783H14.6765C15.0576 35.9783 15.3666 35.6693 15.3666 35.2881C15.3666 34.907 15.0576 34.598 14.6765 34.598H13.1582V32.2975H16.1488C16.5299 32.2975 16.8389 31.9885 16.8389 31.6074C16.8389 31.2263 16.5299 30.9173 16.1488 30.9173H13.1582V28.6168H14.6765C15.0576 28.6168 15.3666 28.3078 15.3666 27.9267C15.3666 27.5456 15.0576 27.2366 14.6765 27.2366H13.1582V24.9361H16.1488C16.5299 24.9361 16.8389 24.6271 16.8389 24.246C16.8389 23.8649 16.5299 23.5559 16.1488 23.5559H13.1582V23.0047C13.1582 21.6159 13.699 20.3104 14.6809 19.3284L16.4346 17.5747H30.5853L32.3392 19.3284C33.3213 20.3104 33.8621 21.616 33.8621 23.0049V41.9134H33.8622Z" fill="black"/>
        <path d="M31.6076 25.0283C31.2265 25.0283 30.9175 25.3373 30.9175 25.7185V35.2884C30.9175 35.6695 31.2265 35.9785 31.6076 35.9785C31.9888 35.9785 32.2977 35.6695 32.2977 35.2884V25.7185C32.2977 25.3373 31.9888 25.0283 31.6076 25.0283Z" fill="black"/>
        <path d="M30.2573 20.4346C29.9878 20.7041 29.9879 21.1411 30.2573 21.4106C30.6831 21.8364 30.9177 22.4025 30.9177 23.0048C30.9177 23.3859 31.2267 23.6949 31.6078 23.6949C31.989 23.6949 32.298 23.3859 32.298 23.0048C32.298 22.0339 31.9199 21.1211 31.2333 20.4346C30.9638 20.165 30.5268 20.165 30.2573 20.4346Z" fill="black"/>
        <path d="M29.3991 14.6303H30.1353C30.5164 14.6303 30.8254 14.3213 30.8254 13.9401C30.8254 13.559 30.5164 13.25 30.1353 13.25H29.3991C29.018 13.25 28.709 13.559 28.709 13.9401C28.709 14.3213 29.018 14.6303 29.3991 14.6303Z" fill="black"/>
        <path d="M21.3019 14.6303H26.4549C26.8361 14.6303 27.1451 14.3213 27.1451 13.9401C27.1451 13.559 26.8361 13.25 26.4549 13.25H21.3019C20.9208 13.25 20.6118 13.559 20.6118 13.9401C20.6118 14.3213 20.9208 14.6303 21.3019 14.6303Z" fill="black"/>
    </g>
    <g clip-path="url(#clip1_778_229)">
        <path d="M34.2947 18.3523L33.3698 17.4276C34.1764 17.1132 34.7496 16.3287 34.7496 15.4123V12.4677C34.7496 11.2754 33.7796 10.3053 32.5872 10.3053H31.9902C31.2781 8.46992 29.8999 6.93074 28.1447 6.03568C27.7604 5.83969 27.706 5.36533 27.8497 5.01843C28.1072 4.39712 28.1853 3.71076 28.0756 3.03342C27.8234 1.4763 26.5004 0.211238 24.93 0.0254544C23.8913 -0.0972052 22.8513 0.227249 22.076 0.91637C21.3 1.60595 20.8549 2.59652 20.8549 3.63411C20.8549 4.12521 20.9518 4.60186 21.143 5.05073C21.3079 5.43785 21.1701 5.86389 20.8227 6.04185C19.0685 6.94003 17.6925 8.47691 16.9829 10.3054H16.392C15.1997 10.3054 14.2296 11.2754 14.2296 12.4678V15.4124C14.2296 16.3287 14.8028 17.1132 15.6093 17.4276L14.6844 18.3525C13.4418 19.5951 12.7573 21.2473 12.7573 23.0048V41.9135C12.7573 44.7295 15.0483 47.0205 17.8643 47.0205H31.1149C33.9309 47.0205 36.2218 44.7295 36.2218 41.9135V23.0049C36.2219 21.2474 35.5375 19.595 34.2947 18.3523ZM21.4518 7.27029C22.4519 6.75821 22.8651 5.57145 22.4129 4.50975C22.295 4.23287 22.2351 3.93823 22.2351 3.63402C22.2351 2.99045 22.5113 2.37596 22.9928 1.94807C23.4808 1.51449 24.1116 1.3183 24.7678 1.39606C25.7393 1.51099 26.5573 2.2924 26.7132 3.25399C26.7819 3.6781 26.734 4.10552 26.5747 4.48988C26.1272 5.56961 26.5326 6.76281 27.5177 7.26523C28.81 7.92426 29.8563 9.00491 30.4875 10.3052H18.4859C19.1153 9.01043 20.1601 7.93171 21.4518 7.27029ZM15.61 12.4677C15.61 12.0364 15.9608 11.6856 16.3921 11.6856H17.4673C17.4682 11.6856 17.4689 11.6858 17.4697 11.6858C17.4705 11.6858 17.4712 11.6856 17.4719 11.6856H31.5034C31.5052 11.6856 31.5069 11.6856 31.5087 11.6856H32.5873C33.0186 11.6856 33.3695 12.0364 33.3695 12.4677V15.4123C33.3695 15.8436 33.0186 16.1944 32.5873 16.1944H16.3922C15.9609 16.1944 15.6101 15.8436 15.6101 15.4123V12.4677H15.61ZM34.8417 41.9134C34.8417 43.9683 33.1699 45.6401 31.115 45.6401H17.8644C15.8095 45.6401 14.1377 43.9683 14.1377 41.9134V39.659H17.1283C17.5094 39.659 17.8184 39.35 17.8184 38.9688C17.8184 38.5877 17.5094 38.2787 17.1283 38.2787H14.1377V35.9783H15.656C16.0371 35.9783 16.3461 35.6693 16.3461 35.2881C16.3461 34.907 16.0371 34.598 15.656 34.598H14.1377V32.2975H17.1283C17.5094 32.2975 17.8184 31.9885 17.8184 31.6074C17.8184 31.2263 17.5094 30.9173 17.1283 30.9173H14.1377V28.6168H15.656C16.0371 28.6168 16.3461 28.3078 16.3461 27.9267C16.3461 27.5456 16.0371 27.2366 15.656 27.2366H14.1377V24.9361H17.1283C17.5094 24.9361 17.8184 24.6271 17.8184 24.246C17.8184 23.8649 17.5094 23.5559 17.1283 23.5559H14.1377V23.0047C14.1377 21.6159 14.6785 20.3104 15.6604 19.3284L17.4141 17.5747H31.5648L33.3187 19.3284C34.3008 20.3104 34.8416 21.616 34.8416 23.0049V41.9134H34.8417Z" fill="black"/>
        <path d="M32.5871 25.0283C32.206 25.0283 31.897 25.3373 31.897 25.7185V35.2884C31.897 35.6695 32.206 35.9785 32.5871 35.9785C32.9682 35.9785 33.2772 35.6695 33.2772 35.2884V25.7185C33.2772 25.3373 32.9682 25.0283 32.5871 25.0283Z" fill="black"/>
        <path d="M31.2368 20.4346C30.9673 20.7041 30.9673 21.1411 31.2368 21.4106C31.6626 21.8364 31.8972 22.4025 31.8972 23.0048C31.8972 23.3859 32.2062 23.6949 32.5873 23.6949C32.9685 23.6949 33.2775 23.3859 33.2775 23.0048C33.2775 22.0339 32.8993 21.1211 32.2128 20.4346C31.9433 20.165 31.5063 20.165 31.2368 20.4346Z" fill="black"/>
        <path d="M30.3786 14.6303H31.1148C31.4959 14.6303 31.8049 14.3213 31.8049 13.9401C31.8049 13.559 31.4959 13.25 31.1148 13.25H30.3786C29.9975 13.25 29.6885 13.559 29.6885 13.9401C29.6885 14.3213 29.9975 14.6303 30.3786 14.6303Z" fill="black"/>
        <path d="M22.2814 14.6303H27.4344C27.8156 14.6303 28.1246 14.3213 28.1246 13.9401C28.1246 13.559 27.8156 13.25 27.4344 13.25H22.2814C21.9003 13.25 21.5913 13.559 21.5913 13.9401C21.5913 14.3213 21.9003 14.6303 22.2814 14.6303Z" fill="black"/>
    </g>
    <g clip-path="url(#clip2_778_229)">
        <path d="M34.2947 19.3318L33.3698 18.4071C34.1764 18.0927 34.7496 17.3082 34.7496 16.3918V13.4472C34.7496 12.2548 33.7796 11.2848 32.5872 11.2848H31.9902C31.2781 9.44941 29.8999 7.91023 28.1447 7.01518C27.7604 6.81918 27.706 6.34483 27.8497 5.99792C28.1072 5.37662 28.1853 4.69026 28.0756 4.01291C27.8234 2.45579 26.5004 1.19073 24.93 1.00495C23.8913 0.882287 22.8513 1.20674 22.076 1.89586C21.3 2.58544 20.8549 3.57601 20.8549 4.61361C20.8549 5.1047 20.9518 5.58136 21.143 6.03022C21.3079 6.41734 21.1701 6.84338 20.8227 7.02134C19.0685 7.91953 17.6925 9.45641 16.9829 11.2849H16.392C15.1997 11.2849 14.2296 12.2549 14.2296 13.4473V16.3919C14.2296 17.3082 14.8028 18.0927 15.6093 18.4071L14.6844 19.332C13.4418 20.5746 12.7573 22.2268 12.7573 23.9843V42.893C12.7573 45.709 15.0483 48 17.8643 48H31.1149C33.9309 48 36.2218 45.709 36.2218 42.893V23.9843C36.2219 22.2269 35.5375 20.5745 34.2947 19.3318ZM21.4518 8.24978C22.4519 7.7377 22.8651 6.55095 22.4129 5.48925C22.295 5.21237 22.2351 4.91772 22.2351 4.61351C22.2351 3.96994 22.5113 3.35545 22.9928 2.92756C23.4808 2.49398 24.1116 2.2978 24.7678 2.37555C25.7393 2.49048 26.5573 3.2719 26.7132 4.23348C26.7819 4.65759 26.734 5.08501 26.5747 5.46937C26.1272 6.54911 26.5326 7.7423 27.5177 8.24472C28.81 8.90375 29.8563 9.9844 30.4875 11.2847H18.4859C19.1153 9.98993 20.1601 8.9112 21.4518 8.24978ZM15.61 13.4472C15.61 13.0159 15.9608 12.6651 16.3921 12.6651H17.4673C17.4682 12.6651 17.4689 12.6652 17.4697 12.6652C17.4705 12.6652 17.4712 12.6651 17.4719 12.6651H31.5034C31.5052 12.6651 31.5069 12.6651 31.5087 12.6651H32.5873C33.0186 12.6651 33.3695 13.0159 33.3695 13.4472V16.3918C33.3695 16.8231 33.0186 17.1739 32.5873 17.1739H16.3922C15.9609 17.1739 15.6101 16.8231 15.6101 16.3918V13.4472H15.61ZM34.8417 42.8929C34.8417 44.9478 33.1699 46.6196 31.115 46.6196H17.8644C15.8095 46.6196 14.1377 44.9478 14.1377 42.8929V40.6385H17.1283C17.5094 40.6385 17.8184 40.3295 17.8184 39.9483C17.8184 39.5672 17.5094 39.2582 17.1283 39.2582H14.1377V36.9577H15.656C16.0371 36.9577 16.3461 36.6488 16.3461 36.2676C16.3461 35.8865 16.0371 35.5775 15.656 35.5775H14.1377V33.277H17.1283C17.5094 33.277 17.8184 32.968 17.8184 32.5869C17.8184 32.2058 17.5094 31.8968 17.1283 31.8968H14.1377V29.5963H15.656C16.0371 29.5963 16.3461 29.2873 16.3461 28.9062C16.3461 28.5251 16.0371 28.2161 15.656 28.2161H14.1377V25.9156H17.1283C17.5094 25.9156 17.8184 25.6066 17.8184 25.2255C17.8184 24.8443 17.5094 24.5354 17.1283 24.5354H14.1377V23.9842C14.1377 22.5954 14.6785 21.2899 15.6604 20.3079L17.4141 18.5542H31.5648L33.3187 20.3079C34.3008 21.2899 34.8416 22.5955 34.8416 23.9843V42.8929H34.8417Z" fill="black"/>
        <path d="M32.5871 26.0078C32.206 26.0078 31.897 26.3168 31.897 26.6979V36.2679C31.897 36.649 32.206 36.958 32.5871 36.958C32.9682 36.958 33.2772 36.649 33.2772 36.2679V26.6979C33.2772 26.3168 32.9682 26.0078 32.5871 26.0078Z" fill="black"/>
        <path d="M31.2368 21.4141C30.9673 21.6836 30.9673 22.1206 31.2368 22.3901C31.6626 22.8159 31.8972 23.382 31.8972 23.9843C31.8972 24.3654 32.2062 24.6744 32.5873 24.6744C32.9685 24.6744 33.2775 24.3654 33.2775 23.9843C33.2775 23.0134 32.8993 22.1006 32.2128 21.4141C31.9433 21.1445 31.5063 21.1445 31.2368 21.4141Z" fill="black"/>
        <path d="M30.3786 15.6098H31.1148C31.4959 15.6098 31.8049 15.3008 31.8049 14.9196C31.8049 14.5385 31.4959 14.2295 31.1148 14.2295H30.3786C29.9975 14.2295 29.6885 14.5385 29.6885 14.9196C29.6885 15.3008 29.9975 15.6098 30.3786 15.6098Z" fill="black"/>
        <path d="M22.2814 15.6098H27.4344C27.8156 15.6098 28.1246 15.3008 28.1246 14.9196C28.1246 14.5385 27.8156 14.2295 27.4344 14.2295H22.2814C21.9003 14.2295 21.5913 14.5385 21.5913 14.9196C21.5913 15.3008 21.9003 15.6098 22.2814 15.6098Z" fill="black"/>
    </g>
    <g clip-path="url(#clip3_778_229)">
        <path d="M33.3152 19.3318L32.3904 18.4071C33.1969 18.0927 33.7702 17.3082 33.7702 16.3918V13.4472C33.7702 12.2548 32.8001 11.2848 31.6077 11.2848H31.0107C30.2986 9.44941 28.9205 7.91023 27.1652 7.01518C26.781 6.81918 26.7265 6.34483 26.8702 5.99792C27.1277 5.37662 27.2058 4.69026 27.0961 4.01291C26.8439 2.45579 25.521 1.19073 23.9505 1.00495C22.9118 0.882287 21.8718 1.20674 21.0965 1.89586C20.3205 2.58544 19.8754 3.57601 19.8754 4.61361C19.8754 5.1047 19.9723 5.58136 20.1635 6.03022C20.3284 6.41734 20.1906 6.84338 19.8432 7.02134C18.0891 7.91953 16.713 9.45641 16.0034 11.2849H15.4125C14.2202 11.2849 13.2501 12.2549 13.2501 13.4473V16.3919C13.2501 17.3082 13.8233 18.0927 14.6298 18.4071L13.7049 19.332C12.4623 20.5746 11.7778 22.2268 11.7778 23.9843V42.893C11.7778 45.709 14.0688 48 16.8848 48H30.1354C32.9514 48 35.2423 45.709 35.2423 42.893V23.9843C35.2424 22.2269 34.558 20.5745 33.3152 19.3318ZM20.4723 8.24978C21.4724 7.7377 21.8856 6.55095 21.4334 5.48925C21.3155 5.21237 21.2557 4.91772 21.2557 4.61351C21.2557 3.96994 21.5318 3.35545 22.0133 2.92756C22.5013 2.49398 23.1321 2.2978 23.7884 2.37555C24.7598 2.49048 25.5778 3.2719 25.7337 4.23348C25.8024 4.65759 25.7545 5.08501 25.5952 5.46937C25.1477 6.54911 25.5531 7.7423 26.5382 8.24472C27.8305 8.90375 28.8768 9.9844 29.508 11.2847H17.5064C18.1358 9.98993 19.1807 8.9112 20.4723 8.24978ZM14.6305 13.4472C14.6305 13.0159 14.9813 12.6651 15.4126 12.6651H16.4879C16.4887 12.6651 16.4894 12.6652 16.4902 12.6652C16.491 12.6652 16.4917 12.6651 16.4925 12.6651H30.524C30.5257 12.6651 30.5275 12.6651 30.5292 12.6651H31.6078C32.0391 12.6651 32.39 13.0159 32.39 13.4472V16.3918C32.39 16.8231 32.0391 17.1739 31.6078 17.1739H15.4127C14.9814 17.1739 14.6306 16.8231 14.6306 16.3918V13.4472H14.6305ZM33.8622 42.8929C33.8622 44.9478 32.1904 46.6196 30.1355 46.6196H16.8849C14.83 46.6196 13.1582 44.9478 13.1582 42.8929V40.6385H16.1488C16.5299 40.6385 16.8389 40.3295 16.8389 39.9483C16.8389 39.5672 16.5299 39.2582 16.1488 39.2582H13.1582V36.9577H14.6765C15.0576 36.9577 15.3666 36.6488 15.3666 36.2676C15.3666 35.8865 15.0576 35.5775 14.6765 35.5775H13.1582V33.277H16.1488C16.5299 33.277 16.8389 32.968 16.8389 32.5869C16.8389 32.2058 16.5299 31.8968 16.1488 31.8968H13.1582V29.5963H14.6765C15.0576 29.5963 15.3666 29.2873 15.3666 28.9062C15.3666 28.5251 15.0576 28.2161 14.6765 28.2161H13.1582V25.9156H16.1488C16.5299 25.9156 16.8389 25.6066 16.8389 25.2255C16.8389 24.8443 16.5299 24.5354 16.1488 24.5354H13.1582V23.9842C13.1582 22.5954 13.699 21.2899 14.6809 20.3079L16.4346 18.5542H30.5853L32.3392 20.3079C33.3213 21.2899 33.8621 22.5955 33.8621 23.9843V42.8929H33.8622Z" fill="black"/>
        <path d="M31.6076 26.0078C31.2265 26.0078 30.9175 26.3168 30.9175 26.6979V36.2679C30.9175 36.649 31.2265 36.958 31.6076 36.958C31.9888 36.958 32.2977 36.649 32.2977 36.2679V26.6979C32.2977 26.3168 31.9888 26.0078 31.6076 26.0078Z" fill="black"/>
        <path d="M30.2573 21.4141C29.9878 21.6836 29.9879 22.1206 30.2573 22.3901C30.6831 22.8159 30.9177 23.382 30.9177 23.9843C30.9177 24.3654 31.2267 24.6744 31.6078 24.6744C31.989 24.6744 32.298 24.3654 32.298 23.9843C32.298 23.0134 31.9199 22.1006 31.2333 21.4141C30.9638 21.1445 30.5268 21.1445 30.2573 21.4141Z" fill="black"/>
        <path d="M29.3991 15.6098H30.1353C30.5164 15.6098 30.8254 15.3008 30.8254 14.9196C30.8254 14.5385 30.5164 14.2295 30.1353 14.2295H29.3991C29.018 14.2295 28.709 14.5385 28.709 14.9196C28.709 15.3008 29.018 15.6098 29.3991 15.6098Z" fill="black"/>
        <path d="M21.3019 15.6098H26.4549C26.8361 15.6098 27.1451 15.3008 27.1451 14.9196C27.1451 14.5385 26.8361 14.2295 26.4549 14.2295H21.3019C20.9208 14.2295 20.6118 14.5385 20.6118 14.9196C20.6118 15.3008 20.9208 15.6098 21.3019 15.6098Z" fill="black"/>
    </g>
    <defs>
        <clipPath id="clip0_778_229">
            <rect width="47.0204" height="47.0204" fill="white"/>
        </clipPath>
        <clipPath id="clip1_778_229">
            <rect width="47.0204" height="47.0204" fill="white" transform="translate(0.979492)"/>
        </clipPath>
        <clipPath id="clip2_778_229">
            <rect width="47.0204" height="47.0204" fill="white" transform="translate(0.979492 0.979492)"/>
        </clipPath>
        <clipPath id="clip3_778_229">
            <rect width="47.0204" height="47.0204" fill="white" transform="translate(0 0.979492)"/>
        </clipPath>
    </defs>
</svg>
