<svg xmlns="http://www.w3.org/2000/svg" xmlns:xlink="http://www.w3.org/1999/xlink" viewBox="0,0,256,256" width="48px" height="48px"><g fill="#dddddd" fill-rule="nonzero" stroke="none" stroke-width="1" stroke-linecap="butt" stroke-linejoin="miter" stroke-miterlimit="10" stroke-dasharray="" stroke-dashoffset="0" font-family="none" font-weight="none" font-size="none" text-anchor="none" style="mix-blend-mode: normal"><path d="M0,256v-256h256v256z" id="bgRectangle"></path></g><g fill="none" fill-rule="nonzero" stroke="none" stroke-width="1" stroke-linecap="butt" stroke-linejoin="miter" stroke-miterlimit="10" stroke-dasharray="" stroke-dashoffset="0" font-family="none" font-weight="none" font-size="none" text-anchor="none" style="mix-blend-mode: normal"><g transform="scale(5.33333,5.33333)"><path d="M11.733,3.562c3.205,-0.153 8.093,-0.71 13.252,-0.412c2.92,0.169 10.602,-0.344 10.602,-0.344c4.901,0 8.759,3.898 9.371,8.76c0.209,1.66 0.795,5.163 0.602,6.715c-0.412,3.313 0.227,8.302 0.086,9.667c-0.64,6.212 -0.33,6.473 -0.086,8.612c0.555,4.87 -3.979,9.116 -8.874,8.874c-4.263,-0.211 -9.624,-0.354 -13.905,0.026c-3.224,0.286 -8.751,-0.158 -10.632,-0.026c-4.889,0.342 -8.841,-2.637 -8.874,-8.874c-0.009,-1.671 -0.606,-3.7 -0.546,-6.66c0.073,-3.596 0.513,-6.785 0.546,-8.401c0.049,-2.368 0.008,-7.107 0,-9.476c-0.017,-4.9 1.794,-8.144 8.458,-8.461z" fill="#4b7bb2"></path><path d="M19.986,46.06c-1.336,0 -2.761,-0.044 -4.086,-0.086c-1.591,-0.049 -2.965,-0.093 -3.716,-0.04c-2.618,0.186 -4.977,-0.566 -6.642,-2.111c-1.793,-1.664 -2.75,-4.174 -2.767,-7.26c-0.003,-0.648 -0.102,-1.365 -0.215,-2.194c-0.172,-1.259 -0.367,-2.686 -0.331,-4.479c0.044,-2.172 0.22,-4.188 0.362,-5.809c0.092,-1.052 0.171,-1.961 0.184,-2.592c0.039,-1.874 0.021,-5.262 0.008,-7.736l-0.008,-1.728c-0.02,-5.904 2.735,-8.668 8.935,-8.964v0c0.789,-0.038 1.68,-0.1 2.653,-0.167c3.002,-0.21 6.74,-0.47 10.652,-0.244c2.855,0.164 10.463,-0.338 10.54,-0.343c0,0 0.001,0 0.002,0c4.998,0 9.238,3.954 9.898,9.197c0.04,0.315 0.093,0.696 0.152,1.118c0.259,1.857 0.614,4.399 0.45,5.721c-0.251,2.022 -0.098,4.773 0.015,6.782c0.072,1.297 0.129,2.322 0.073,2.875c-0.535,5.188 -0.403,6.148 -0.203,7.603c0.038,0.274 0.078,0.565 0.116,0.901c0.263,2.308 -0.561,4.67 -2.261,6.483c-1.852,1.975 -4.521,3.073 -7.135,2.947c-5.855,-0.291 -10.381,-0.282 -13.835,0.025c-0.839,0.075 -1.814,0.101 -2.841,0.101zM13.095,44.91c0.772,0 1.755,0.031 2.836,0.064c2.315,0.072 4.939,0.154 6.805,-0.011c3.501,-0.312 8.071,-0.321 13.974,-0.028c2.329,0.123 4.701,-0.869 6.355,-2.632c1.521,-1.622 2.23,-3.641 1.998,-5.686c-0.038,-0.328 -0.077,-0.611 -0.113,-0.878c-0.21,-1.526 -0.349,-2.534 0.198,-7.841c0.049,-0.474 -0.009,-1.513 -0.076,-2.717c-0.121,-2.161 -0.271,-4.849 -0.008,-6.961c0.148,-1.191 -0.21,-3.759 -0.448,-5.459c-0.06,-0.427 -0.114,-0.813 -0.154,-1.132c-0.598,-4.745 -4.413,-8.323 -8.875,-8.323c-0.282,0.02 -7.713,0.513 -10.631,0.342c-3.855,-0.223 -7.552,0.036 -10.525,0.244c-0.98,0.068 -1.879,0.131 -2.674,0.169v0c-5.688,0.271 -8,2.578 -7.982,7.961l0.008,1.726c0.013,2.48 0.031,5.876 -0.008,7.762c-0.014,0.664 -0.095,1.588 -0.188,2.659c-0.14,1.605 -0.315,3.604 -0.358,5.742c-0.035,1.714 0.155,3.1 0.322,4.323c0.118,0.864 0.22,1.611 0.224,2.324c0.015,2.802 0.861,5.061 2.447,6.532c1.481,1.374 3.521,2.014 5.893,1.846c0.264,-0.019 0.596,-0.026 0.98,-0.026z" fill="#010101"></path><path d="M16.35,13.752c-0.236,2.723 -1.938,2.834 -3.105,2.775c-1.167,-0.059 -3.34,-0.861 -3.192,-3.007c0.147,-2.146 3.329,-3.04 3.329,-3.04c0,0 3.19,0.716 2.968,3.272z" fill="#d6e5e5"></path><path d="M15.808,11.126c-0.626,-0.594 -1.35,-0.967 -2.211,-1.114c-1.069,-0.184 -1.618,0.274 -2.402,0.936c-1.46,1.232 -2.212,3.134 -0.985,4.847c1.229,1.715 4.563,1.792 5.924,0.257c0.697,-0.786 0.87,-1.756 0.784,-2.782c-0.103,-1.224 -0.648,-1.926 -1.535,-2.712c-0.48,-0.425 -1.19,0.279 -0.707,0.707c0.656,0.581 1.06,0.952 1.217,1.882c0.142,0.836 0.019,1.7 -0.586,2.331c-0.641,0.669 -1.715,0.591 -2.591,0.546c-0.992,-0.05 -1.702,-0.559 -2.013,-1.503c-0.422,-1.285 0.464,-2.151 1.348,-2.915c0.583,-0.504 1.129,-0.781 1.926,-0.498c0.314,0.111 0.858,0.472 1.124,0.725c0.466,0.444 1.174,-0.262 0.707,-0.707z" fill="#010101"></path><path d="M10.413,20.496l0.852,19.524l5.619,0.098l-0.578,-19.409z" fill="#d6e5e5"></path><path d="M9.913,20.496c0.72,6.445 0.781,12.842 0.781,19.311c0,0.643 1,0.645 1,0c0,-6.469 -0.061,-12.865 -0.781,-19.311c-0.07,-0.632 -1.071,-0.639 -1,0z" fill="#010101"></path><path d="M16.788,20.842c0.015,-0.044 0.029,-0.088 0.044,-0.131c0.112,-0.332 -0.179,-0.607 -0.482,-0.633c-1.973,-0.17 -3.955,-0.153 -5.937,-0.153c-0.643,0 -0.645,1 0,1c1.981,0 3.965,-0.017 5.937,0.153c-0.161,-0.211 -0.321,-0.422 -0.482,-0.633c-0.015,0.044 -0.029,0.088 -0.044,0.131c-0.206,0.612 0.759,0.874 0.964,0.266z" fill="#010101"></path><path d="M16.031,21.121c-0.381,-0.079 -0.148,3.775 -0.139,4.055c0.058,1.745 0.02,3.501 0.143,5.244c0.216,3.069 0.353,6.238 0.339,9.316c-0.003,0.644 0.997,0.644 1,0c0.028,-6.353 -0.546,-12.729 -0.651,-19.086c-0.003,-0.208 -0.152,-0.438 -0.367,-0.482c-0.02,-0.004 -0.039,-0.008 -0.059,-0.012c-0.628,-0.129 -0.897,0.835 -0.266,0.965z" fill="#010101"></path><path d="M11.265,39.52c-0.016,0 -0.031,0 -0.047,0c0,0.333 0,0.667 0,1c1.251,0 2.497,-0.014 3.743,0.064c0.619,0.038 1.463,0.236 2.055,0.016c-0.188,-0.245 -0.376,-0.49 -0.565,-0.735c-0.027,0.038 -0.054,0.077 -0.081,0.115c-0.371,0.527 0.495,1.027 0.863,0.505c0.027,-0.038 0.054,-0.077 0.081,-0.115c0.244,-0.346 -0.164,-0.883 -0.565,-0.734c-0.602,0.224 -1.554,-0.088 -2.184,-0.117c-1.111,-0.051 -2.237,0.002 -3.349,0.002c-0.643,0 -0.645,1 0,1c0.016,0 0.031,0 0.047,0c0.646,-0.001 0.647,-1.001 0.002,-1.001z" fill="#010101"></path><path d="M19.856,20.425l0.568,13.88l-0.06,5.993l4.923,0.309c0,0 -0.035,-3.924 0,-4.279c0.035,-0.355 -0.737,-6.22 -0.191,-6.748c0.546,-0.529 2.529,-3.049 2.818,-2.942c0.289,0.107 2.982,-0.776 2.982,-0.776c0,0 1.742,0.631 1.805,0.684c0.063,0.053 1.297,1.804 1.297,1.804l0.341,3.258l0.119,7.525l0.733,0.876l3.603,0.13l0.301,-7.43l-0.394,-4.128l-1.464,-6.025l-3.786,-2.201l-5.573,0.923l-2.14,1.501l-0.655,-2.415z" fill="#d6e5e5"></path><path d="M19.374,20.558c0.691,2.83 0.352,6.266 0.408,9.169c0.068,3.473 -0.186,7.125 0.082,10.57c0.027,0.35 0.413,0.66 0.752,0.432c0.067,-0.045 0.135,-0.091 0.202,-0.136c0.531,-0.357 0.031,-1.224 -0.505,-0.863c-0.067,0.045 -0.135,0.091 -0.202,0.136c0.251,0.144 0.502,0.288 0.752,0.432c-0.288,-3.704 -0.068,-7.653 -0.082,-11.387c-0.01,-2.739 0.207,-5.953 -0.444,-8.618c-0.152,-0.625 -1.116,-0.361 -0.963,0.265z" fill="#010101"></path><path d="M19.644,19.646c-0.014,0.018 -0.029,0.037 -0.043,0.055c-0.157,0.201 -0.223,0.513 0,0.707c0.427,0.372 1.095,0.254 1.626,0.288c1.239,0.081 2.485,-0.019 3.722,0.149c-0.116,-0.205 -0.233,-0.41 -0.349,-0.615c-0.188,1.002 0.026,1.879 0.652,2.678c0.397,0.506 1.1,-0.206 0.707,-0.707c-0.381,-0.486 -0.508,-1.105 -0.395,-1.705c0.045,-0.237 -0.064,-0.576 -0.349,-0.615c-0.959,-0.13 -1.925,-0.169 -2.893,-0.169c-0.445,0 -0.881,-0.047 -1.32,-0.066c-0.11,-0.005 -0.662,0.083 -0.694,0.054c0,0.236 0,0.471 0,0.707c0.014,-0.018 0.029,-0.037 0.043,-0.055c0.391,-0.501 -0.312,-1.213 -0.707,-0.706z" fill="#010101"></path><path d="M25.603,22.839c-0.001,0.015 -0.001,0.03 -0.002,0.045c-0.019,0.529 0.668,0.636 0.932,0.252c1.312,-1.906 5.319,-2.424 7.327,-2.006c3.419,0.712 3.611,3.479 4.184,6.427c0.434,2.234 0.527,4.577 0.48,6.852c-0.037,1.809 -0.649,4.088 -0.213,5.861c0.127,0.514 0.803,0.433 0.964,0c0.006,-0.016 0.012,-0.031 0.017,-0.047c0.225,-0.604 -0.741,-0.864 -0.964,-0.266c-0.006,0.016 -0.012,0.031 -0.017,0.047c0.321,0 0.643,0 0.964,0c-0.361,-1.467 0.211,-3.264 0.246,-4.777c0.037,-1.603 -0.019,-3.215 -0.104,-4.814c-0.135,-2.547 -0.446,-6.263 -1.951,-8.393c-1.17,-1.656 -3.548,-2.271 -5.527,-2.148c-1.867,0.116 -5.144,1.124 -6.269,2.759c0.311,0.084 0.621,0.168 0.932,0.252c0.001,-0.015 0.001,-0.03 0.002,-0.045c0.023,-0.642 -0.977,-0.641 -1.001,0.001z" fill="#010101"></path><path d="M20.384,39.943c-0.04,0.025 -0.08,0.051 -0.121,0.076c-0.341,0.216 -0.321,0.821 0.119,0.914c1.555,0.327 3.483,0.286 5.055,-0.025c0.217,-0.043 0.362,-0.274 0.367,-0.482c0.073,-3.068 -0.941,-6.781 -0.267,-9.775c0.415,-1.846 1.874,-2.975 3.487,-3.76c3.006,-1.464 4.66,0.925 4.814,3.733c0.09,1.633 0.014,3.289 0.071,4.924c0.043,1.242 -0.226,2.768 0.085,3.969c0.506,1.95 2.877,1.318 4.346,1.022c0.63,-0.127 0.364,-1.091 -0.266,-0.964c-1.164,0.235 -2.65,0.616 -3.114,-0.641c-0.239,-0.647 0.005,-1.973 -0.024,-2.706c-0.086,-2.188 0.091,-4.452 -0.172,-6.623c-0.345,-2.849 -2.6,-4.961 -5.533,-3.943c-1.277,0.443 -2.456,1.411 -3.45,2.299c-1.426,1.273 -1.322,2.473 -1.322,4.396c-0.001,1.961 0.32,3.889 0.37,5.841c0.01,0.386 0.136,1.36 -0.012,1.756c-0.073,0.195 0.718,0.223 -0.635,0.135c-1.146,-0.074 -2.41,0.117 -3.534,-0.119c0.04,0.305 0.08,0.609 0.119,0.914c0.04,-0.025 0.08,-0.051 0.121,-0.076c0.543,-0.345 0.042,-1.21 -0.504,-0.865z" fill="#010101"></path></g></g></svg>