<svg width="314" height="94" viewBox="0 0 314 94" fill="none" xmlns="http://www.w3.org/2000/svg">
<rect y="64" width="313.214" height="27.8889" fill="black"/>
<path d="M64.6589 71.1237C65.9603 71.1237 67.0696 71.3584 67.9869 71.8277C68.9149 72.2971 69.6136 72.9584 70.0829 73.8117C70.5629 74.6544 70.8029 75.6464 70.8029 76.7877C70.8029 77.9184 70.5629 78.9104 70.0829 79.7637C69.6136 80.6064 68.9149 81.2624 67.9869 81.7317C67.0696 82.1904 65.9603 82.4197 64.6589 82.4197H59.7629V71.1237H64.6589ZM64.6909 80.1797C65.7683 80.1797 66.6003 79.8917 67.1869 79.3157C67.7736 78.7291 68.0669 77.8864 68.0669 76.7877C68.0669 75.6784 67.7736 74.8304 67.1869 74.2437C66.6003 73.6464 65.7683 73.3477 64.6909 73.3477H62.4509V80.1797H64.6909ZM82.6218 71.1237H85.3098V82.4197H82.6218V71.1237ZM104.727 80.0037H100.103L99.2068 82.4197H96.3108L100.967 71.1237H103.991L108.615 82.4197H105.623L104.727 80.0037ZM103.943 77.8597L102.423 73.7477L100.903 77.8597H103.943ZM125.22 82.6917C124.057 82.6917 123.012 82.4571 122.084 81.9877C121.156 81.5077 120.43 80.8251 119.908 79.9397C119.385 79.0437 119.124 77.9931 119.124 76.7877C119.124 75.5824 119.38 74.5317 119.892 73.6357C120.414 72.7397 121.14 72.0571 122.068 71.5877C123.006 71.1077 124.078 70.8677 125.284 70.8677C127.065 70.8677 128.638 71.4811 130.004 72.7077L128.628 74.3397C127.636 73.5611 126.596 73.1717 125.508 73.1717C124.825 73.1717 124.206 73.3157 123.652 73.6037C123.097 73.8811 122.66 74.2917 122.34 74.8357C122.02 75.3797 121.86 76.0304 121.86 76.7877C121.86 77.5344 122.009 78.1797 122.308 78.7237C122.617 79.2571 123.038 79.6677 123.572 79.9557C124.116 80.2331 124.729 80.3717 125.412 80.3717C125.902 80.3717 126.366 80.3077 126.804 80.1797C127.241 80.0411 127.598 79.8651 127.876 79.6517V77.8757H124.996V75.6997H130.372V80.6917C129.689 81.3317 128.889 81.8277 127.972 82.1797C127.054 82.5211 126.137 82.6917 125.22 82.6917ZM153.268 71.1237V82.4197H150.516L144.852 75.1237V82.4197H142.164V71.1237H144.932L150.58 78.4037V71.1237H153.268ZM171.077 82.6757C169.84 82.6757 168.762 82.4357 167.845 81.9557C166.938 81.4651 166.24 80.7771 165.749 79.8917C165.258 78.9957 165.013 77.9611 165.013 76.7877C165.013 75.6144 165.258 74.5797 165.749 73.6837C166.24 72.7877 166.938 72.0944 167.845 71.6037C168.762 71.1131 169.84 70.8677 171.077 70.8677C172.314 70.8677 173.386 71.1131 174.293 71.6037C175.21 72.0944 175.909 72.7877 176.389 73.6837C176.88 74.5797 177.125 75.6144 177.125 76.7877C177.125 77.9611 176.88 78.9957 176.389 79.8917C175.909 80.7771 175.21 81.4651 174.293 81.9557C173.386 82.4357 172.314 82.6757 171.077 82.6757ZM171.077 80.3717C172.112 80.3717 172.917 80.0677 173.493 79.4597C174.08 78.8411 174.373 77.9504 174.373 76.7877C174.373 75.6037 174.08 74.7024 173.493 74.0837C172.917 73.4651 172.112 73.1557 171.077 73.1557C170.042 73.1557 169.232 73.4651 168.645 74.0837C168.058 74.7024 167.765 75.6037 167.765 76.7877C167.765 77.9504 168.058 78.8411 168.645 79.4597C169.232 80.0677 170.042 80.3717 171.077 80.3717ZM193.168 82.6757C192.293 82.6757 191.408 82.5531 190.512 82.3077C189.616 82.0517 188.848 81.7104 188.208 81.2837L189.152 79.3157C189.675 79.6251 190.309 79.8811 191.056 80.0837C191.813 80.2864 192.517 80.3877 193.168 80.3877C194.768 80.3877 195.568 80.0571 195.568 79.3957C195.568 79.1611 195.429 78.9584 195.152 78.7877C194.885 78.6171 194.581 78.4837 194.24 78.3877C193.899 78.2917 193.424 78.1744 192.816 78.0357C191.888 77.8224 191.12 77.5877 190.512 77.3317C189.915 77.0651 189.429 76.6917 189.056 76.2117C188.693 75.7211 188.512 75.0864 188.512 74.3077C188.512 73.1451 188.976 72.2811 189.904 71.7157C190.843 71.1504 192.048 70.8677 193.52 70.8677C194.32 70.8677 195.125 70.9691 195.936 71.1717C196.747 71.3744 197.483 71.6571 198.144 72.0197L197.248 73.9877C196.619 73.7211 195.968 73.5184 195.296 73.3797C194.635 73.2411 194.005 73.1717 193.408 73.1717C192.747 73.1717 192.213 73.2571 191.808 73.4277C191.413 73.5984 191.216 73.8544 191.216 74.1957C191.216 74.5157 191.408 74.7611 191.792 74.9317C192.176 75.1024 192.704 75.2624 193.376 75.4117L193.792 75.5077C195.168 75.7851 196.261 76.2011 197.072 76.7557C197.893 77.2997 198.304 78.0837 198.304 79.1077C198.304 80.3024 197.824 81.1984 196.864 81.7957C195.904 82.3824 194.672 82.6757 193.168 82.6757ZM219.35 73.3797H215.43V82.4197H212.742V73.3797H208.822V71.1237H219.35V73.3797ZM230.051 71.1237H232.739V82.4197H230.051V71.1237ZM250.54 82.6757C249.441 82.6757 248.428 82.4411 247.5 81.9717C246.582 81.5024 245.846 80.8197 245.292 79.9237C244.748 79.0277 244.476 77.9771 244.476 76.7717C244.476 75.5451 244.753 74.4837 245.308 73.5877C245.862 72.6917 246.604 72.0144 247.532 71.5557C248.46 71.0971 249.462 70.8677 250.54 70.8677C251.5 70.8677 252.412 71.0437 253.276 71.3957C254.15 71.7371 254.886 72.2117 255.484 72.8197L254.092 74.4197C253.612 74.0251 253.078 73.7211 252.492 73.5077C251.916 73.2837 251.329 73.1717 250.732 73.1717C250.049 73.1717 249.441 73.3211 248.908 73.6197C248.385 73.9077 247.969 74.3237 247.66 74.8677C247.361 75.4011 247.212 76.0357 247.212 76.7717C247.212 77.5077 247.361 78.1477 247.66 78.6917C247.969 79.2357 248.39 79.6571 248.924 79.9557C249.457 80.2437 250.065 80.3877 250.748 80.3877C251.334 80.3877 251.916 80.2811 252.492 80.0677C253.078 79.8437 253.612 79.5344 254.092 79.1397L255.484 80.7237C254.886 81.3211 254.156 81.7957 253.292 82.1477C252.428 82.4997 251.51 82.6757 250.54 82.6757Z" fill="#F7F7F7"/>
<g clip-path="url(#clip0_23_2)">
<path fill-rule="evenodd" clip-rule="evenodd" d="M221.703 52.2469H213.821L236.946 7.72701H238.042H244.829H246.029L269.155 52.2469H261.168L255.113 40.5284H227.811L221.703 52.2469ZM252.189 35.053L241.383 14.2771L230.577 35.053H252.189ZM185.631 6.55005L191.008 0.46055H202.962L185.631 6.55005ZM170.232 52.3492H210.845V47.2832H177.227V31.8803H202.179V26.6608H177.227V12.7419H210.636V7.77819H170.232V52.3492ZM115.002 7.72701H121.318H144.914C152.9 7.72701 159.426 13.5607 159.426 20.6736C159.426 26.8654 154.467 32.085 147.889 33.3131L161.931 52.2981H153.684L139.85 33.6202H121.318V52.2981H115.002V33.6202V7.72701ZM145.279 13.0489L145.697 13.1001L146.114 13.1513L146.532 13.2536L146.949 13.356L147.315 13.5095L147.68 13.663L148.046 13.8165L148.411 14.0212L148.776 14.2259L149.09 14.4306L149.403 14.6864L149.716 14.9423L149.977 15.1982L150.238 15.454L150.499 15.7611L150.76 16.0681L150.969 16.3751L151.178 16.6822L151.387 16.9892L151.543 17.2962L151.7 17.6033L151.856 17.9103L151.961 18.2173L152.065 18.5244L152.17 18.8314L152.222 19.1896L152.274 19.5478L152.326 19.906V20.2642V20.6224V20.9806V21.3388L152.274 21.697L152.222 22.0552L152.17 22.4135L152.065 22.7717L151.961 23.0787L151.856 23.3857L151.7 23.6928L151.543 23.9998L151.387 24.3068L151.178 24.6139L150.969 24.9209L150.76 25.2279L150.499 25.535L150.238 25.842L149.977 26.0979L149.716 26.3537L149.403 26.6096L149.09 26.8654L148.776 27.0701L148.411 27.2748L148.046 27.4795L147.68 27.633L147.315 27.7865L146.949 27.9401L146.532 28.0424L146.114 28.1448L145.697 28.2471L145.279 28.2983L144.861 28.3494H144.392H121.684V12.9978H144.392H144.914L145.279 13.0489ZM76.1631 5.11723C63.3214 5.11723 52.9331 15.3005 52.9331 27.8889C52.9331 40.4773 63.3214 50.6606 76.1631 50.6606C89.0049 50.6606 99.3931 40.4773 99.3931 27.8889C99.3931 15.3005 88.9527 5.11723 76.1631 5.11723ZM76.1631 0C59.093 0 45.2072 12.486 45.2072 27.8889C45.2072 43.2917 59.0408 55.7778 76.1631 55.7778C93.2855 55.7778 107.119 43.2917 107.119 27.8889C107.067 12.486 93.2333 0 76.1631 0ZM0 52.3492V7.77819H5.79445V47.4879H40.1436V52.3492H0ZM272.444 52.3492H313.214V47.2832H278.865V7.77819H272.496L272.444 52.3492ZM28.3458 23.3857H33.7227L41.7618 8.08522H34.9233L28.3458 23.3857Z" fill="black"/>
</g>
<defs>
<clipPath id="clip0_23_2">
<rect width="313.214" height="55.7778" fill="white"/>
</clipPath>
</defs>
</svg>
