<svg width="67" height="67" viewBox="0 0 67 67" fill="none" xmlns="http://www.w3.org/2000/svg">
<path d="M55.5612 30.4824H10.9459C9.492 30.4824 8.31335 31.6611 8.31335 33.115V33.3921C8.31335 34.846 9.492 36.0247 10.9459 36.0247H55.5612C57.0151 36.0247 58.1938 34.846 58.1938 33.3921V33.115C58.1938 31.6611 57.0151 30.4824 55.5612 30.4824Z" fill="#231F20"/>
<path d="M55.5612 44.3379H10.9459C9.492 44.3379 8.31335 45.5165 8.31335 46.9705V47.2476C8.31335 48.7015 9.492 49.8802 10.9459 49.8802H55.5612C57.0151 49.8802 58.1938 48.7015 58.1938 47.2476V46.9705C58.1938 45.5165 57.0151 44.3379 55.5612 44.3379Z" fill="#231F20"/>
<path d="M55.5612 16.6267H10.946C9.49206 16.6267 8.31342 17.8054 8.31342 19.2593V19.5364C8.31342 20.9903 9.49206 22.169 10.946 22.169H55.5612C57.0152 22.169 58.1938 20.9903 58.1938 19.5364V19.2593C58.1938 17.8054 57.0152 16.6267 55.5612 16.6267Z" fill="#231F20"/>
</svg>
